<svg width="180" height="180" viewBox="0 0 180 180" fill="none" xmlns="http://www.w3.org/2000/svg">
  <rect width="180" height="180" rx="45" fill="url(#gradient)"/>
  <g transform="translate(22.5, 22.5)" fill="none" stroke="white" stroke-width="11" stroke-linecap="round" stroke-linejoin="round">
    <path d="M18 16.98h-5.99c-1.1 0-1.95.94-2.48 1.9A4 4 0 0 1 2 17c.01-.7.2-1.4.57-2"/>
    <path d="m6 17 3.13-5.78c.53-.97.1-2.18-.5-3.1a4 4 0 1 1 6.89-4.06"/>
    <path d="m12 6 3.13 5.73C15.66 12.7 16.9 13 18 13a4 4 0 0 1 0 8"/>
  </g>
  <defs>
    <linearGradient id="gradient" x1="0" y1="0" x2="180" y2="180" gradientUnits="userSpaceOnUse">
      <stop stop-color="hsl(var(--primary))"/>
      <stop offset="1" stop-color="hsl(var(--primary))" stop-opacity="0.6"/>
    </linearGradient>
  </defs>
</svg>